P3
20 20
255
0 0 0
0 0 0
0 0 0
0 0 0
0 0 0
0 0 0
0 0 0
0 0 0
0 0 0
0 0 0
0 0 0
0 0 0
0 0 0
0 0 0
0 0 0
0 0 0
0 0 0
0 0 0
0 0 0
0 0 0
0 0 0
0 0 0
0 0 0
0 0 0
0 0 0
0 0 0
0 0 0
0 0 0
0 0 0
0 0 0
0 0 0
0 0 0
0 0 0
0 0 0
0 0 0
0 0 0
0 0 0
0 0 0
0 0 0
0 0 0
0 0 0
0 0 0
0 0 0
0 0 0
0 0 0
0 0 0
0 0 0
137 137 137
164 164 164
183 183 183
198 198 198
210 210 210
220 220 220
225 225 225
0 0 0
0 0 0
0 0 0
0 0 0
0 0 0
0 0 0
0 0 0
0 0 0
0 0 0
0 0 0
0 0 0
92 92 92
131 131 131
155 155 155
174 174 174
190 190 190
204 204 204
216 216 216
226 226 226
235 235 235
242 242 242
242 242 242
0 0 0
0 0 0
0 0 0
0 0 0
0 0 0
0 0 0
0 0 0
0 0 0
75 75 75
115 115 115
140 140 140
160 160 160
176 176 176
191 191 191
204 204 204
216 216 216
226 226 226
236 236 236
244 244 244
250 250 250
250 250 250
0 0 0
0 0 0
0 0 0
0 0 0
0 0 0
0 0 0
41 41 41
91 91 91
120 120 120
142 142 142
160 160 160
175 175 175
189 189 189
202 202 202
213 213 213
224 224 224
233 233 233
242 242 242
249 249 249
254 254 254
250 250 250
0 0 0
0 0 0
0 0 0
0 0 0
0 0 0
60 60 60
95 95 95
120 120 120
140 140 140
157 157 157
172 172 172
186 186 186
198 198 198
210 210 210
220 220 220
229 229 229
238 238 238
245 245 245
251 251 251
254 254 254
0 0 0
0 0 0
0 0 0
0 0 0
10 10 10
64 64 64
94 94 94
117 117 117
137 137 137
153 153 153
168 168 168
181 181 181
193 193 193
205 205 205
215 215 215
224 224 224
233 233 233
240 240 240
247 247 247
251 251 251
246 246 246
0 0 0
0 0 0
0 0 0
19 19 19
62 62 62
91 91 91
113 113 113
132 132 132
148 148 148
162 162 162
176 176 176
188 188 188
199 199 199
209 209 209
218 218 218
227 227 227
234 234 234
241 241 241
245 245 245
244 244 244
0 0 0
0 0 0
0 0 0
17 17 17
57 57 57
85 85 85
107 107 107
125 125 125
141 141 141
156 156 156
169 169 169
181 181 181
192 192 192
202 202 202
211 211 211
220 220 220
227 227 227
234 234 234
238 238 238
238 238 238
0 0 0
0 0 0
0 0 0
9 9 9
49 49 49
77 77 77
99 99 99
118 118 118
134 134 134
148 148 148
161 161 161
173 173 173
184 184 184
194 194 194
203 203 203
212 212 212
219 219 219
225 225 225
229 229 229
229 229 229
0 0 0
0 0 0
0 0 0
2 2 2
39 39 39
67 67 67
90 90 90
108 108 108
125 125 125
139 139 139
153 153 153
165 165 165
175 175 175
185 185 185
195 195 195
203 203 203
210 210 210
216 216 216
219 219 219
218 218 218
0 0 0
0 0 0
0 0 0
21 21 21
25 25 25
55 55 55
78 78 78
98 98 98
115 115 115
129 129 129
143 143 143
155 155 155
166 166 166
176 176 176
185 185 185
193 193 193
200 200 200
205 205 205
208 208 208
204 204 204
0 0 0
0 0 0
0 0 0
52 52 52
7 7 7
40 40 40
65 65 65
85 85 85
103 103 103
118 118 118
131 131 131
144 144 144
155 155 155
165 165 165
174 174 174
181 181 181
188 188 188
192 192 192
193 193 193
183 183 183
0 0 0
0 0 0
0 0 0
0 0 0
18 18 18
21 21 21
48 48 48
70 70 70
89 89 89
105 105 105
119 119 119
131 131 131
142 142 142
152 152 152
161 161 161
168 168 168
174 174 174
177 177 177
175 175 175
0 0 0
0 0 0
0 0 0
0 0 0
0 0 0
65 65 65
4 4 4
27 27 27
52 52 52
72 72 72
89 89 89
103 103 103
116 116 116
127 127 127
137 137 137
146 146 146
152 152 152
157 157 157
157 157 157
143 143 143
0 0 0
0 0 0
0 0 0
0 0 0
0 0 0
0 0 0
49 49 49
0 0 0
28 28 28
51 51 51
69 69 69
85 85 85
98 98 98
110 110 110
119 119 119
127 127 127
132 132 132
134 134 134
125 125 125
0 0 0
0 0 0
0 0 0
0 0 0
0 0 0
0 0 0
0 0 0
0 0 0
56 56 56
6 6 6
22 22 22
43 43 43
61 61 61
75 75 75
87 87 87
96 96 96
102 102 102
104 104 104
92 92 92
0 0 0
0 0 0
0 0 0
0 0 0
0 0 0
0 0 0
0 0 0
0 0 0
0 0 0
0 0 0
0 0 0
31 31 31
2 2 2
25 25 25
41 41 41
52 52 52
59 59 59
57 57 57
0 0 0
0 0 0
0 0 0
0 0 0
0 0 0
0 0 0
0 0 0
0 0 0
0 0 0
0 0 0
0 0 0
0 0 0
0 0 0
0 0 0
0 0 0
0 0 0
0 0 0
0 0 0
0 0 0
0 0 0
0 0 0
0 0 0
0 0 0
0 0 0
0 0 0
0 0 0
